<mxfile host="Electron" modified="2024-12-18T05:30:11.235Z" agent="Mozilla/5.0 (Windows NT 10.0; Win64; x64) AppleWebKit/537.36 (KHTML, like Gecko) draw.io/22.0.3 Chrome/114.0.5735.289 Electron/25.8.4 Safari/537.36" etag="UYvUiqB3YKfLz5fT4x3c" version="22.0.3" type="device">
  <diagram name="Страница — 1" id="IqTm1s5lf_96RljfV4zz">
    <mxGraphModel dx="1434" dy="844" grid="1" gridSize="10" guides="1" tooltips="1" connect="1" arrows="1" fold="1" page="1" pageScale="1" pageWidth="827" pageHeight="1169" math="0" shadow="0">
      <root>
        <mxCell id="0" />
        <mxCell id="1" parent="0" />
        <mxCell id="n2fHYyKv8_XClmU70kFT-1" value=" Программа" style="swimlane;html=1;childLayout=stackLayout;startSize=20;rounded=0;shadow=0;comic=0;labelBackgroundColor=none;strokeWidth=1;fontFamily=Verdana;fontSize=12;align=center;" vertex="1" parent="1">
          <mxGeometry x="40" y="20" width="750" height="880" as="geometry" />
        </mxCell>
        <mxCell id="n2fHYyKv8_XClmU70kFT-2" value="Пользователь" style="swimlane;html=1;startSize=20;" vertex="1" parent="n2fHYyKv8_XClmU70kFT-1">
          <mxGeometry y="20" width="250" height="860" as="geometry" />
        </mxCell>
        <mxCell id="n2fHYyKv8_XClmU70kFT-3" style="edgeStyle=orthogonalEdgeStyle;rounded=0;orthogonalLoop=1;jettySize=auto;html=1;entryX=0.5;entryY=0;entryDx=0;entryDy=0;" edge="1" parent="n2fHYyKv8_XClmU70kFT-2" source="n2fHYyKv8_XClmU70kFT-4" target="n2fHYyKv8_XClmU70kFT-6">
          <mxGeometry relative="1" as="geometry">
            <mxPoint x="125" y="120" as="targetPoint" />
          </mxGeometry>
        </mxCell>
        <mxCell id="n2fHYyKv8_XClmU70kFT-4" value="" style="ellipse;whiteSpace=wrap;html=1;aspect=fixed;" vertex="1" parent="n2fHYyKv8_XClmU70kFT-2">
          <mxGeometry x="100" y="30" width="50" height="50" as="geometry" />
        </mxCell>
        <mxCell id="n2fHYyKv8_XClmU70kFT-5" value="" style="edgeStyle=orthogonalEdgeStyle;rounded=0;orthogonalLoop=1;jettySize=auto;html=1;entryX=0.5;entryY=0;entryDx=0;entryDy=0;" edge="1" parent="n2fHYyKv8_XClmU70kFT-2" source="n2fHYyKv8_XClmU70kFT-6" target="n2fHYyKv8_XClmU70kFT-11">
          <mxGeometry relative="1" as="geometry" />
        </mxCell>
        <mxCell id="n2fHYyKv8_XClmU70kFT-6" value="Построить график" style="rounded=1;whiteSpace=wrap;html=1;" vertex="1" parent="n2fHYyKv8_XClmU70kFT-2">
          <mxGeometry x="67.5" y="120" width="115" height="40" as="geometry" />
        </mxCell>
        <mxCell id="n2fHYyKv8_XClmU70kFT-7" style="edgeStyle=orthogonalEdgeStyle;rounded=0;orthogonalLoop=1;jettySize=auto;html=1;entryX=0.5;entryY=0;entryDx=0;entryDy=0;" edge="1" parent="n2fHYyKv8_XClmU70kFT-2" source="n2fHYyKv8_XClmU70kFT-8" target="n2fHYyKv8_XClmU70kFT-9">
          <mxGeometry relative="1" as="geometry" />
        </mxCell>
        <mxCell id="n2fHYyKv8_XClmU70kFT-8" value="Результат получен" style="rounded=1;whiteSpace=wrap;html=1;" vertex="1" parent="n2fHYyKv8_XClmU70kFT-2">
          <mxGeometry x="67.5" y="640" width="115" height="40" as="geometry" />
        </mxCell>
        <mxCell id="n2fHYyKv8_XClmU70kFT-9" value="" style="ellipse;whiteSpace=wrap;html=1;aspect=fixed;" vertex="1" parent="n2fHYyKv8_XClmU70kFT-2">
          <mxGeometry x="100" y="720" width="50" height="50" as="geometry" />
        </mxCell>
        <mxCell id="n2fHYyKv8_XClmU70kFT-10" value="" style="ellipse;whiteSpace=wrap;html=1;aspect=fixed;" vertex="1" parent="n2fHYyKv8_XClmU70kFT-2">
          <mxGeometry x="110" y="730" width="30" height="30" as="geometry" />
        </mxCell>
        <mxCell id="n2fHYyKv8_XClmU70kFT-11" value="" style="rhombus;whiteSpace=wrap;html=1;" vertex="1" parent="n2fHYyKv8_XClmU70kFT-2">
          <mxGeometry x="92.5" y="200" width="65" height="60" as="geometry" />
        </mxCell>
        <mxCell id="n2fHYyKv8_XClmU70kFT-12" value="" style="endArrow=classic;html=1;rounded=0;exitX=0;exitY=0.5;exitDx=0;exitDy=0;" edge="1" parent="n2fHYyKv8_XClmU70kFT-2" source="n2fHYyKv8_XClmU70kFT-11">
          <mxGeometry width="50" height="50" relative="1" as="geometry">
            <mxPoint x="30" y="320" as="sourcePoint" />
            <mxPoint x="40" y="280" as="targetPoint" />
          </mxGeometry>
        </mxCell>
        <mxCell id="n2fHYyKv8_XClmU70kFT-13" value="Да" style="text;html=1;align=center;verticalAlign=middle;resizable=0;points=[];autosize=1;strokeColor=none;fillColor=none;" vertex="1" parent="n2fHYyKv8_XClmU70kFT-2">
          <mxGeometry x="160" y="180" width="40" height="30" as="geometry" />
        </mxCell>
        <mxCell id="n2fHYyKv8_XClmU70kFT-14" value="" style="ellipse;whiteSpace=wrap;html=1;aspect=fixed;" vertex="1" parent="n2fHYyKv8_XClmU70kFT-2">
          <mxGeometry x="20" y="280" width="30" height="30" as="geometry" />
        </mxCell>
        <mxCell id="n2fHYyKv8_XClmU70kFT-15" value="" style="endArrow=none;html=1;rounded=0;exitX=0;exitY=1;exitDx=0;exitDy=0;entryX=1;entryY=0;entryDx=0;entryDy=0;" edge="1" parent="n2fHYyKv8_XClmU70kFT-2" source="n2fHYyKv8_XClmU70kFT-14" target="n2fHYyKv8_XClmU70kFT-14">
          <mxGeometry width="50" height="50" relative="1" as="geometry">
            <mxPoint x="20" y="330" as="sourcePoint" />
            <mxPoint x="70" y="280" as="targetPoint" />
          </mxGeometry>
        </mxCell>
        <mxCell id="n2fHYyKv8_XClmU70kFT-16" value="" style="endArrow=none;html=1;rounded=0;exitX=0;exitY=0;exitDx=0;exitDy=0;entryX=1;entryY=1;entryDx=0;entryDy=0;" edge="1" parent="n2fHYyKv8_XClmU70kFT-2" source="n2fHYyKv8_XClmU70kFT-14" target="n2fHYyKv8_XClmU70kFT-14">
          <mxGeometry width="50" height="50" relative="1" as="geometry">
            <mxPoint x="34" y="316" as="sourcePoint" />
            <mxPoint x="56" y="294" as="targetPoint" />
          </mxGeometry>
        </mxCell>
        <mxCell id="n2fHYyKv8_XClmU70kFT-17" value="MainWindow" style="swimlane;html=1;startSize=20;" vertex="1" parent="n2fHYyKv8_XClmU70kFT-1">
          <mxGeometry x="250" y="20" width="250" height="860" as="geometry" />
        </mxCell>
        <mxCell id="n2fHYyKv8_XClmU70kFT-18" style="edgeStyle=orthogonalEdgeStyle;rounded=0;orthogonalLoop=1;jettySize=auto;html=1;entryX=0.5;entryY=0;entryDx=0;entryDy=0;" edge="1" parent="n2fHYyKv8_XClmU70kFT-17" source="n2fHYyKv8_XClmU70kFT-19" target="n2fHYyKv8_XClmU70kFT-20">
          <mxGeometry relative="1" as="geometry" />
        </mxCell>
        <mxCell id="n2fHYyKv8_XClmU70kFT-19" value="Начало построения" style="rounded=1;whiteSpace=wrap;html=1;" vertex="1" parent="n2fHYyKv8_XClmU70kFT-17">
          <mxGeometry x="67.5" y="260" width="115" height="40" as="geometry" />
        </mxCell>
        <mxCell id="n2fHYyKv8_XClmU70kFT-20" value="Инициализация таймера" style="rounded=1;whiteSpace=wrap;html=1;" vertex="1" parent="n2fHYyKv8_XClmU70kFT-17">
          <mxGeometry x="67.5" y="330" width="115" height="40" as="geometry" />
        </mxCell>
        <mxCell id="n2fHYyKv8_XClmU70kFT-21" value="График" style="rounded=1;whiteSpace=wrap;html=1;" vertex="1" parent="n2fHYyKv8_XClmU70kFT-17">
          <mxGeometry x="67.5" y="570" width="115" height="40" as="geometry" />
        </mxCell>
        <mxCell id="n2fHYyKv8_XClmU70kFT-22" value="GraphManager" style="swimlane;html=1;startSize=20;" vertex="1" parent="n2fHYyKv8_XClmU70kFT-1">
          <mxGeometry x="500" y="20" width="250" height="860" as="geometry" />
        </mxCell>
        <mxCell id="n2fHYyKv8_XClmU70kFT-23" style="edgeStyle=orthogonalEdgeStyle;rounded=0;orthogonalLoop=1;jettySize=auto;html=1;" edge="1" parent="n2fHYyKv8_XClmU70kFT-22" source="n2fHYyKv8_XClmU70kFT-24" target="n2fHYyKv8_XClmU70kFT-25">
          <mxGeometry relative="1" as="geometry" />
        </mxCell>
        <mxCell id="n2fHYyKv8_XClmU70kFT-24" value="Добавление точек графика" style="rounded=1;whiteSpace=wrap;html=1;" vertex="1" parent="n2fHYyKv8_XClmU70kFT-22">
          <mxGeometry x="80" y="410" width="115" height="40" as="geometry" />
        </mxCell>
        <mxCell id="n2fHYyKv8_XClmU70kFT-25" value="Отображение графика" style="rounded=1;whiteSpace=wrap;html=1;" vertex="1" parent="n2fHYyKv8_XClmU70kFT-22">
          <mxGeometry x="80" y="490" width="115" height="40" as="geometry" />
        </mxCell>
        <mxCell id="n2fHYyKv8_XClmU70kFT-26" style="edgeStyle=orthogonalEdgeStyle;rounded=0;orthogonalLoop=1;jettySize=auto;html=1;entryX=0.5;entryY=0;entryDx=0;entryDy=0;" edge="1" parent="n2fHYyKv8_XClmU70kFT-1" source="n2fHYyKv8_XClmU70kFT-20" target="n2fHYyKv8_XClmU70kFT-24">
          <mxGeometry relative="1" as="geometry" />
        </mxCell>
        <mxCell id="n2fHYyKv8_XClmU70kFT-27" style="edgeStyle=orthogonalEdgeStyle;rounded=0;orthogonalLoop=1;jettySize=auto;html=1;entryX=0.5;entryY=0;entryDx=0;entryDy=0;" edge="1" parent="n2fHYyKv8_XClmU70kFT-1" source="n2fHYyKv8_XClmU70kFT-25" target="n2fHYyKv8_XClmU70kFT-21">
          <mxGeometry relative="1" as="geometry" />
        </mxCell>
        <mxCell id="n2fHYyKv8_XClmU70kFT-28" style="edgeStyle=orthogonalEdgeStyle;rounded=0;orthogonalLoop=1;jettySize=auto;html=1;entryX=0.5;entryY=0;entryDx=0;entryDy=0;" edge="1" parent="n2fHYyKv8_XClmU70kFT-1" source="n2fHYyKv8_XClmU70kFT-21" target="n2fHYyKv8_XClmU70kFT-8">
          <mxGeometry relative="1" as="geometry" />
        </mxCell>
        <mxCell id="n2fHYyKv8_XClmU70kFT-29" value="" style="endArrow=classic;html=1;rounded=0;exitX=1;exitY=0.5;exitDx=0;exitDy=0;entryX=0;entryY=0.5;entryDx=0;entryDy=0;" edge="1" parent="n2fHYyKv8_XClmU70kFT-1" source="n2fHYyKv8_XClmU70kFT-11" target="n2fHYyKv8_XClmU70kFT-19">
          <mxGeometry width="50" height="50" relative="1" as="geometry">
            <mxPoint x="120" y="350" as="sourcePoint" />
            <mxPoint x="170" y="300" as="targetPoint" />
          </mxGeometry>
        </mxCell>
        <mxCell id="n2fHYyKv8_XClmU70kFT-30" value="Нет" style="text;html=1;align=center;verticalAlign=middle;resizable=0;points=[];autosize=1;strokeColor=none;fillColor=none;" vertex="1" parent="1">
          <mxGeometry x="87" y="220" width="40" height="30" as="geometry" />
        </mxCell>
      </root>
    </mxGraphModel>
  </diagram>
</mxfile>
